<svg width="1200" height="760" viewBox="0 0 1200 760" fill="none" xmlns="http://www.w3.org/2000/svg">
  <rect width="1200" height="760" fill="#ffffff"/>
  <rect x="40" y="32" width="1120" height="696" fill="#ffffff" stroke="#e5e7eb"/>
  <text x="72" y="76" font-family="Inter, Arial, sans-serif" font-size="22" font-weight="600" fill="#111827">tokentrace</text>
  <text x="72" y="104" font-family="Inter, Arial, sans-serif" font-size="13" fill="#6b7280">Local dashboard for agent sessions, token usage, cost, diffs, and transcripts</text>

  <rect x="868" y="56" width="48" height="30" rx="4" fill="#111827"/>
  <text x="884" y="76" font-family="Inter, Arial, sans-serif" font-size="12" fill="#ffffff">30d</text>
  <rect x="924" y="56" width="48" height="30" rx="4" fill="#ffffff" stroke="#e5e7eb"/>
  <text x="940" y="76" font-family="Inter, Arial, sans-serif" font-size="12" fill="#6b7280">90d</text>
  <rect x="980" y="56" width="60" height="30" rx="4" fill="#ffffff" stroke="#e5e7eb"/>
  <text x="995" y="76" font-family="Inter, Arial, sans-serif" font-size="12" fill="#6b7280">All</text>
  <rect x="1050" y="56" width="78" height="30" rx="4" fill="#ffffff" stroke="#e5e7eb"/>
  <text x="1065" y="76" font-family="Inter, Arial, sans-serif" font-size="12" fill="#111827">VAT 21%</text>

  <g transform="translate(72 142)">
    <rect width="250" height="96" fill="#ffffff" stroke="#e5e7eb"/>
    <text x="18" y="30" font-family="Inter, Arial, sans-serif" font-size="11" font-weight="600" letter-spacing=".08em" fill="#6b7280">TOTAL COST</text>
    <text x="18" y="66" font-family="Inter, Arial, sans-serif" font-size="30" font-weight="600" fill="#111827">~$45.88</text>
    <text x="18" y="84" font-family="Inter, Arial, sans-serif" font-size="12" fill="#9ca3af">3 sessions, incl. VAT</text>
  </g>
  <g transform="translate(340 142)">
    <rect width="250" height="96" fill="#ffffff" stroke="#e5e7eb"/>
    <text x="18" y="30" font-family="Inter, Arial, sans-serif" font-size="11" font-weight="600" letter-spacing=".08em" fill="#6b7280">TOTAL TOKENS</text>
    <text x="18" y="66" font-family="Inter, Arial, sans-serif" font-size="30" font-weight="600" fill="#111827">2.41M</text>
    <text x="18" y="84" font-family="Inter, Arial, sans-serif" font-size="12" fill="#9ca3af">input + output + cache writes</text>
  </g>
  <g transform="translate(608 142)">
    <rect width="250" height="96" fill="#ffffff" stroke="#e5e7eb"/>
    <text x="18" y="30" font-family="Inter, Arial, sans-serif" font-size="11" font-weight="600" letter-spacing=".08em" fill="#6b7280">SESSIONS</text>
    <text x="18" y="66" font-family="Inter, Arial, sans-serif" font-size="30" font-weight="600" fill="#111827">3</text>
    <text x="18" y="84" font-family="Inter, Arial, sans-serif" font-size="12" fill="#9ca3af">recorded runs</text>
  </g>
  <g transform="translate(876 142)">
    <rect width="250" height="96" fill="#ffffff" stroke="#e5e7eb"/>
    <text x="18" y="30" font-family="Inter, Arial, sans-serif" font-size="11" font-weight="600" letter-spacing=".08em" fill="#6b7280">AVG COST / SESSION</text>
    <text x="18" y="66" font-family="Inter, Arial, sans-serif" font-size="30" font-weight="600" fill="#111827">~$15.29</text>
    <text x="18" y="84" font-family="Inter, Arial, sans-serif" font-size="12" fill="#9ca3af">per run</text>
  </g>

  <g transform="translate(72 270)">
    <rect width="676" height="178" fill="#ffffff" stroke="#e5e7eb"/>
    <text x="18" y="30" font-family="Inter, Arial, sans-serif" font-size="12" font-weight="600" letter-spacing=".08em" fill="#6b7280">COST PER DAY</text>
    <line x1="48" y1="128" x2="628" y2="128" stroke="#f3f4f6"/>
    <line x1="48" y1="84" x2="628" y2="84" stroke="#f3f4f6"/>
    <line x1="48" y1="40" x2="628" y2="40" stroke="#f3f4f6"/>
    <rect x="84" y="94" width="66" height="34" fill="#111827"/>
    <rect x="208" y="112" width="66" height="16" fill="#111827"/>
    <rect x="332" y="52" width="66" height="76" fill="#111827"/>
    <rect x="456" y="80" width="66" height="48" fill="#111827"/>
    <text x="95" y="156" font-family="Inter, Arial, sans-serif" font-size="11" fill="#6b7280">5/22</text>
    <text x="219" y="156" font-family="Inter, Arial, sans-serif" font-size="11" fill="#6b7280">5/23</text>
    <text x="343" y="156" font-family="Inter, Arial, sans-serif" font-size="11" fill="#6b7280">5/24</text>
    <text x="467" y="156" font-family="Inter, Arial, sans-serif" font-size="11" fill="#6b7280">5/25</text>
  </g>

  <g transform="translate(72 480)">
    <rect width="1056" height="178" fill="#ffffff" stroke="#e5e7eb"/>
    <text x="18" y="30" font-family="Inter, Arial, sans-serif" font-size="12" font-weight="600" letter-spacing=".08em" fill="#6b7280">SESSIONS</text>
    <text x="18" y="66" font-family="Inter, Arial, sans-serif" font-size="11" font-weight="600" fill="#6b7280">DATE</text>
    <text x="160" y="66" font-family="Inter, Arial, sans-serif" font-size="11" font-weight="600" fill="#6b7280">MODEL</text>
    <text x="460" y="66" font-family="Inter, Arial, sans-serif" font-size="11" font-weight="600" fill="#6b7280">TOKENS</text>
    <text x="590" y="66" font-family="Inter, Arial, sans-serif" font-size="11" font-weight="600" fill="#6b7280">COST</text>
    <text x="720" y="66" font-family="Inter, Arial, sans-serif" font-size="11" font-weight="600" fill="#6b7280">FILES</text>
    <text x="840" y="66" font-family="Inter, Arial, sans-serif" font-size="11" font-weight="600" fill="#6b7280">STATUS</text>
    <line x1="18" y1="78" x2="1038" y2="78" stroke="#e5e7eb"/>

    <text x="18" y="105" font-family="Inter, Arial, sans-serif" font-size="12" fill="#111827">May 25 at 12:10</text>
    <text x="160" y="100" font-family="Menlo, monospace" font-size="11" fill="#6b7280">sonnet-4-6</text>
    <text x="160" y="118" font-family="Inter, Arial, sans-serif" font-size="11" fill="#374151">Prepare public release</text>
    <text x="460" y="105" font-family="Inter, Arial, sans-serif" font-size="12" fill="#111827">1.76M</text>
    <text x="590" y="105" font-family="Inter, Arial, sans-serif" font-size="12" fill="#111827">~$45.88</text>
    <text x="720" y="105" font-family="Inter, Arial, sans-serif" font-size="12" fill="#111827">4</text>
    <rect x="840" y="90" width="34" height="20" rx="10" fill="#eefaf1"/>
    <text x="849" y="104" font-family="Inter, Arial, sans-serif" font-size="11" fill="#166534">ok</text>

    <line x1="18" y1="130" x2="1038" y2="130" stroke="#f3f4f6"/>
    <text x="18" y="154" font-family="Inter, Arial, sans-serif" font-size="12" fill="#111827">May 24 at 18:43</text>
    <text x="160" y="149" font-family="Menlo, monospace" font-size="11" fill="#6b7280">gpt-4o</text>
    <text x="160" y="167" font-family="Inter, Arial, sans-serif" font-size="11" fill="#374151">Codex repository audit</text>
    <text x="460" y="154" font-family="Inter, Arial, sans-serif" font-size="12" fill="#111827">452.1K</text>
    <text x="590" y="154" font-family="Inter, Arial, sans-serif" font-size="12" fill="#111827">~$3.12</text>
    <text x="720" y="154" font-family="Inter, Arial, sans-serif" font-size="12" fill="#111827">7</text>
    <rect x="840" y="139" width="34" height="20" rx="10" fill="#eefaf1"/>
    <text x="849" y="153" font-family="Inter, Arial, sans-serif" font-size="11" fill="#166534">ok</text>
  </g>
</svg>
